#!OML:ASF E:\Mandelcareful walks\Project 1\Capture day 1\Session 1\Subject1.ASF
:FULLY-SPECIFIED
:DEGREES
2135
root 30.331 16.519 4.79187 1209.98 79.5353 1207.61
lowerback -4.04964 -3.678 -6.6578
upperback 1.06765 -4.54058 -0.00174263
thorax 3.90062 -2.40554 3.36477
lowerneck -21.8688 1.0056 -0.851814
upperneck 38.188 3.60009 -1.05285
head 17.8931 1.54933 0.557814
rclavicle -1.04362e-014 1.59028e-015
rhumerus -48.2134 -33.5402 -54.1241
rradius 17.5258
rwrist 14.3575
rhand -8.66334 -31.541
rfingers 7.12502
rthumb 17.2705 -60.7936
lclavicle -1.04362e-014 1.59028e-015
lhumerus -18.3819 -9.50705 87.16
lradius 35.0489
lwrist 12.815
lhand -23.0943 -11.2087
lfingers 7.12502
lthumb 3.352 18.7447
rfemur -29.2806 -4.47723 10.9691
rtibia 25.7305
rfoot -19.2423 -16.0893
rtoes 7.51718
lfemur 18.85 -2.62299 -30.0918
ltibia 8.36567
lfoot -10.7184 1.59074
ltoes 9.92231
2136
root 30.49 16.5205 4.81042 1210.74 79.6069 1208.48
lowerback -4.04655 -3.67806 -6.26782
upperback 1.04584 -4.56488 0.0231978
thorax 3.84841 -2.40783 3.17369
lowerneck -21.8002 1.00082 -0.828654
upperneck 38.305 3.62496 -1.10376
head 17.9439 1.55935 0.53749
rclavicle -2.13694e-014 1.66979e-014
rhumerus -47.9457 -32.5622 -55.1909
rradius 17.9989
rwrist 12.9167
rhand -8.98818 -31.3412
rfingers 7.12502
rthumb 16.9578 -60.6209
lclavicle -2.13694e-014 1.66979e-014
lhumerus -18.9374 -9.32812 87.3774
lradius 35.2857
lwrist 12.7951
lhand -22.7989 -10.9714
lfingers 7.12502
lthumb 3.63729 18.9773
rfemur -29.0898 -4.73557 11.274
rtibia 26.2723
rfoot -17.9612 -16.3647
rtoes 6.6544
lfemur 19.0162 -2.42535 -29.6515
ltibia 9.27418
lfoot -10.2704 1.24375
ltoes 9.49621
2137
root 30.6546 16.5241 4.82685 1212.02 79.6253 1209.95
lowerback -3.94732 -3.70995 -5.85095
upperback 1.00752 -4.64048 0.0619151
thorax 3.72863 -2.43365 2.98446
lowerneck -21.7136 0.985138 -0.723424
upperneck 38.4392 3.66256 -1.29659
head 18.0075 1.56676 0.439889
rclavicle -1.71452e-014 -2.14687e-014
rhumerus -47.7896 -31.6469 -56.1105
rradius 18.4889
rwrist 11.5999
rhand -9.06996 -31.1758
rfingers 7.12502
rthumb 16.8791 -60.4623
lclavicle -1.71452e-014 -2.14687e-014
lhumerus -19.6246 -9.17082 87.6084
lradius 35.5653
lwrist 12.7387
lhand -22.5301 -10.6644
lfingers 7.12502
lthumb 3.89684 19.2797
rfemur -28.6809 -4.97856 11.5163
rtibia 26.5699
rfoot -16.7485 -16.6973
rtoes 6.61324
lfemur 18.9318 -2.32686 -29.1712
ltibia 10.7869
lfoot -10.0161 0.822461
ltoes 8.56703
2138
root 30.8182 16.5271 4.84211 1212.54 79.2441 1210.76
lowerback -3.95256 -3.80322 -5.82519
upperback 1.13894 -4.75787 -0.0286336
thorax 3.87017 -2.49582 2.86021
lowerneck -21.5174 0.912256 -0.785106
upperneck 38.4161 3.55885 -1.25402
head 17.9399 1.52773 0.446157
rclavicle 6.06293e-014 -2.14687e-014
rhumerus -47.3921 -30.6512 -57.3499
rradius 19.0046
rwrist 10.0682
rhand -9.01836 -31.5256
rfingers 7.12502
rthumb 16.9288 -60.8078
lclavicle 6.06293e-014 -2.14687e-014
lhumerus -20.0467 -8.98909 87.8088
lradius 35.5475
lwrist 12.6279
lhand -22.5243 -10.7654
lfingers 7.12502
lthumb 3.90246 19.1786
rfemur -28.195 -5.71354 11.3765
rtibia 26.9432
rfoot -15.3235 -16.6101
rtoes 6.62661
lfemur 18.963 -2.25802 -29.0656
ltibia 12.2266
lfoot -9.49184 0.335654
ltoes 7.65059
2139
root 30.9652 16.5423 4.86647 1215.25 79.514 1213.48
lowerback -3.91125 -3.80374 -5.14291
upperback 0.97731 -4.80956 0.121529
thorax 3.63756 -2.50158 2.64356
lowerneck -21.1057 0.82011 -0.84365
upperneck 38.4916 3.42374 -1.16335
head 17.8704 1.49186 0.467808
rclavicle 3.62782e-015 1.82882e-014
rhumerus -47.3777 -29.8422 -58.1034
rradius 19.3498
rwrist 8.97435
rhand -9.16452 -31.3709
rfingers 7.12502
rthumb 16.7881 -60.6651
lclavicle 3.62782e-015 1.82882e-014
lhumerus -20.7537 -8.77505 88.1371
lradius 35.3802
lwrist 12.508
lhand -22.6106 -11.1106
lfingers 7.12502
lthumb 3.81911 18.8349
rfemur -28.0581 -5.76594 12.0338
rtibia 27.2322
rfoot -13.6782 -16.7887
rtoes 6.53194
lfemur 18.3646 -2.08972 -28.0927
ltibia 14.0667
lfoot -8.90876 -0.171408
ltoes 7.17095
2140
root 31.1385 16.5499 4.88312 1216.83 79.4697 1215.17
lowerback -4.0199 -3.829 -4.72965
upperback 0.981071 -4.8618 0.180037
thorax 3.6765 -2.52067 2.46337
lowerneck -21.1516 0.764434 -0.81711
upperneck 38.6446 3.42329 -1.33062
head 17.9761 1.47357 0.389476
rclavicle 1.39149e-015 2.62396e-014
rhumerus -47.234 -29.8322 -58.2642
rradius 19.282
rwrist 8.91765
rhand -9.05145 -30.9932
rfingers 7.12502
rthumb 16.8969 -60.2781
lclavicle 1.39149e-015 2.62396e-014
lhumerus -21.3589 -8.31432 88.4846
lradius 35.3168
lwrist 12.1585
lhand -22.5624 -11.303
lfingers 7.12502
lthumb 3.86572 18.6417
rfemur -27.5846 -6.78212 12.4626
rtibia 27.4429
rfoot -12.0623 -15.7908
rtoes 6.94652
lfemur 17.7631 -1.76878 -27.4654
ltibia 16.4331
lfoot -8.55063 -0.844157
ltoes 6.77433
